# xmcd
#
# Track frame offsets: 
#        150
#        15472
#        30871
#        87126
#        121528
#        139121
#        166759
#        186031
#        264953
#
# Disc length: 3985 seconds
#
# Revision: 0
# Processed by: cddbd v1.5.2PL0 Copyright (c) Steve Scherf et al.
# Submitted via: ExactAudioCopy v1.3
#
DISCID=580f8f09
DTITLE=Ryan McGarvey - Live At Swinghouse
DYEAR=2018
DGENRE=Blues Rock
TTITLE0=I Wish I Was Your Man
TTITLE1=Texas Special
TTITLE2=Prove Myself
TTITLE3=Blues Knockin' At My Door
TTITLE4=LIttle Red Riding Hood
TTITLE5=My Heart To You
TTITLE6=Memphis
TTITLE7=Mystic Dream
TTITLE8=Joyride
EXTD=
EXTT0=
EXTT1=
EXTT2=
EXTT3=
EXTT4=
EXTT5=
EXTT6=
EXTT7=
EXTT8=
PLAYORDER=
